# xmcd CD database file
#
# Track frame offsets:
#	150
#	17422
#	29239
#	46924
#	63822
#	83225
#	96427
#	114015
#	126168
#	143580
#	153907
#	173758
#	191509
#
# Disc length: 2776 seconds
#
# Revision: 0
# Processed by: cddbd v1.5.1PL0 Copyright (c) Steve Scherf et al.
# Submitted via: CDex 1.51
#
DISCID=9e0ad60d
DTITLE=Facundo Sarabia - Artesanos De La Voluntad
DYEAR=1900
DGENRE=Country
TTITLE0=Por Las Estaciones
TTITLE1=Con Mi Sombra
TTITLE2=Martina
TTITLE3=Amigo, Chamigo
TTITLE4=Transparencias
TTITLE5=La Oriunda
TTITLE6=Artesanos De La Voluntad
TTITLE7=Una Cueca Entre Los Dos
TTITLE8=Entre La Noche Y Yo
TTITLE9=Mujeres
TTITLE10=De Agua Clara
TTITLE11=Para Volver Un Dia
TTITLE12=Tonada Del Viejo Amor
EXTD=
EXTT0=
EXTT1=
EXTT2=
EXTT3=
EXTT4=
EXTT5=
EXTT6=
EXTT7=
EXTT8=
EXTT9=
EXTT10=
EXTT11=
EXTT12=
PLAYORDER=
